/* XPM */
static char * titcoin64_xpm[] = {
"64 64 625 2",
"  	c None",
". 	c #DC3F1D",
"+ 	c #DC3E1C",
"@ 	c #DB3C19",
"# 	c #DC3A17",
"$ 	c #DC4221",
"% 	c #E05436",
"& 	c #E4684D",
"* 	c #E7775F",
"= 	c #E87F68",
"- 	c #E87E67",
"; 	c #E7765D",
"> 	c #E3674C",
", 	c #E05334",
"' 	c #DD411F",
") 	c #DB3A17",
"! 	c #DC3D1B",
"~ 	c #DE4929",
"{ 	c #EC9785",
"] 	c #F6CCC3",
"^ 	c #FDF0ED",
"/ 	c #FFFFFF",
"( 	c #FCEEEB",
"_ 	c #F5C8BF",
": 	c #EC9480",
"< 	c #E3654A",
"[ 	c #DE4827",
"} 	c #E15436",
"| 	c #F1AEA0",
"1 	c #FCF0ED",
"2 	c #FFFEFE",
"3 	c #FFFBFA",
"4 	c #FBE4E0",
"5 	c #FADDD8",
"6 	c #FADED8",
"7 	c #FBE5E0",
"8 	c #FCF1EE",
"9 	c #FFFDFD",
"0 	c #FCEDEB",
"a 	c #EFA697",
"b 	c #DF5131",
"c 	c #DB3B19",
"d 	c #E3664A",
"e 	c #F4C2B7",
"f 	c #FEF8F7",
"g 	c #FCEAE6",
"h 	c #F1B2A4",
"i 	c #E9826C",
"j 	c #E36447",
"k 	c #DF5031",
"l 	c #DD4524",
"m 	c #DC401E",
"n 	c #DC411F",
"o 	c #DD4625",
"p 	c #DF5132",
"q 	c #E4654A",
"r 	c #E9856F",
"s 	c #F2B6A9",
"t 	c #FCECE9",
"u 	c #FDF6F5",
"v 	c #F3BDB1",
"w 	c #E26043",
"x 	c #DB3B18",
"y 	c #DC3E1B",
"z 	c #DF4F2F",
"A 	c #F0AA9C",
"B 	c #FEF6F5",
"C 	c #F5C8BE",
"D 	c #E6765D",
"E 	c #DC3E1D",
"F 	c #DD401D",
"G 	c #DD421D",
"H 	c #DE431E",
"I 	c #DE411D",
"J 	c #DD411D",
"K 	c #DB3A18",
"L 	c #DD4321",
"M 	c #E77C65",
"N 	c #F6CDC4",
"O 	c #FFFDFC",
"P 	c #EFA292",
"Q 	c #DF4C2C",
"R 	c #E67258",
"S 	c #F2BAAE",
"T 	c #DD401E",
"U 	c #E14B1E",
"V 	c #E95A20",
"W 	c #EF6522",
"X 	c #F16A22",
"Y 	c #F16C22",
"Z 	c #F36C22",
"` 	c #F15B21",
" .	c #F15921",
"..	c #F05821",
"+.	c #EE5621",
"@.	c #E95020",
"#.	c #E2471F",
"$.	c #DE401D",
"%.	c #DC401F",
"&.	c #E0583A",
"*.	c #F5C4B9",
"=.	c #FCEBE7",
"-.	c #E56B50",
";.	c #EE9E8E",
">.	c #FEFCFB",
",.	c #F8D8D1",
"'.	c #E46B50",
").	c #E34D1F",
"!.	c #EC6021",
"~.	c #F16B22",
"{.	c #F37022",
"].	c #F36F22",
"^.	c #F36E22",
"/.	c #F25C21",
"(.	c #F25B21",
"_.	c #EC5320",
":.	c #E4491F",
"<.	c #E57157",
"[.	c #F9DED8",
"}.	c #FEF9F8",
"|.	c #EC9886",
"1.	c #DD4322",
"2.	c #F2B5A8",
"3.	c #F0AC9D",
"4.	c #DC401D",
"5.	c #EF6721",
"6.	c #F47022",
"7.	c #F35C21",
"8.	c #EF5721",
"9.	c #E3481F",
"0.	c #F2B7AA",
"a.	c #EFA798",
"b.	c #DC4220",
"c.	c #F4C6BD",
"d.	c #FEFAF9",
"e.	c #E77A63",
"f.	c #DE451E",
"g.	c #EE6421",
"h.	c #ED5520",
"i.	c #DF431D",
"j.	c #E98771",
"k.	c #F3BAAE",
"l.	c #FDF5F3",
"m.	c #E6735B",
"n.	c #E5511F",
"o.	c #F26C22",
"p.	c #E77962",
"q.	c #FEF7F6",
"r.	c #F0AEA0",
"s.	c #E6745B",
"t.	c #DB3D1B",
"u.	c #E85820",
"v.	c #E64B1F",
"w.	c #E8806A",
"x.	c #EB8D79",
"y.	c #DB3C1A",
"z.	c #EB5C21",
"A.	c #E94E1F",
"B.	c #E98974",
"C.	c #E46D53",
"D.	c #F0AD9E",
"E.	c #E64C1F",
"F.	c #FAE1DB",
"G.	c #F0AB9C",
"H.	c #F8D9D2",
"I.	c #DD401F",
"J.	c #E5521F",
"K.	c #E3481E",
"L.	c #DD4423",
"M.	c #FAE2DC",
"N.	c #EEA291",
"O.	c #E46C51",
"P.	c #DF461E",
"Q.	c #F26D22",
"R.	c #DE421D",
"S.	c #E15C3F",
"T.	c #F4C2B8",
"U.	c #F3BBAF",
"V.	c #EF6622",
"W.	c #F36E20",
"X.	c #F26C1D",
"Y.	c #F37226",
"Z.	c #F47E39",
"`.	c #F58443",
" +	c #F5823F",
".+	c #F4782F",
"++	c #F36D1F",
"@+	c #F36C1E",
"#+	c #F25B20",
"$+	c #F2571C",
"%+	c #F25A1F",
"&+	c #F36630",
"*+	c #F4713F",
"=+	c #F47342",
"-+	c #F46B37",
";+	c #F25D24",
">+	c #F4C1B6",
",+	c #E15537",
"'+	c #E4501F",
")+	c #F36E21",
"!+	c #F37429",
"~+	c #F69359",
"{+	c #FCCDB3",
"]+	c #FEF4ED",
"^+	c #FFFBF8",
"/+	c #FDE2D2",
"(+	c #F8AA7D",
"_+	c #F3752B",
":+	c #F36F3C",
"<+	c #F9A98A",
"[+	c #FDE3D9",
"}+	c #FEEFEA",
"|+	c #FAC1AB",
"1+	c #F57F52",
"2+	c #F25F26",
"3+	c #F25A20",
"4+	c #E2471E",
"5+	c #E4664B",
"6+	c #E05132",
"7+	c #F16921",
"8+	c #F68D50",
"9+	c #FEE7DA",
"0+	c #FFFEFD",
"a+	c #FBD0B6",
"b+	c #F37023",
"c+	c #F25E24",
"d+	c #FABBA3",
"e+	c #FFF8F7",
"f+	c #FDDFD4",
"g+	c #F47747",
"h+	c #EEA392",
"i+	c #DE4A29",
"j+	c #FCF0EE",
"k+	c #E6755D",
"l+	c #F8AB7E",
"m+	c #FFFCFA",
"n+	c #FEEADE",
"o+	c #F37227",
"p+	c #F25B1F",
"q+	c #F36D3A",
"r+	c #FFF7F4",
"s+	c #F79670",
"t+	c #FADFD9",
"u+	c #DD4120",
"v+	c #E4694D",
"w+	c #FBE9E6",
"x+	c #ED6321",
"y+	c #F36F21",
"z+	c #F9B085",
"A+	c #FEF2EB",
"B+	c #FDDFCD",
"C+	c #FCD2BA",
"D+	c #FCD7C1",
"E+	c #FDEADE",
"F+	c #FFF9F6",
"G+	c #FFFAF7",
"H+	c #F8A97B",
"I+	c #F36E39",
"J+	c #FEEDE7",
"K+	c #FFF8F5",
"L+	c #FDE4DB",
"M+	c #FCD0BF",
"N+	c #FCCCBA",
"O+	c #FDDCCF",
"P+	c #FEF2ED",
"Q+	c #F7926B",
"R+	c #F2591F",
"S+	c #EB5120",
"T+	c #DB3E1D",
"U+	c #E05537",
"V+	c #F1B1A4",
"W+	c #DE421E",
"X+	c #F7965E",
"Y+	c #FFFDFB",
"Z+	c #FEF1E9",
"`+	c #F79862",
" @	c #F3762D",
".@	c #F37024",
"+@	c #F57F3A",
"@@	c #F47D37",
"#@	c #FCDACC",
"$@	c #FAB69D",
"%@	c #F36D39",
"&@	c #F25E25",
"*@	c #F25B22",
"=@	c #F25D23",
"-@	c #F3642E",
";@	c #F7936C",
">@	c #FFF5F1",
",@	c #F58153",
"'@	c #F15A21",
")@	c #EB8D78",
"!@	c #E8826B",
"~@	c #E34E1F",
"{@	c #F47830",
"]@	c #FEF0E8",
"^@	c #FCDAC6",
"/@	c #F47B34",
"(@	c #F9B790",
"_@	c #F6916A",
":@	c #F2591E",
"<@	c #F2581D",
"[@	c #F46D39",
"}@	c #FDDFD3",
"|@	c #FDE0D5",
"1@	c #ED9A89",
"2@	c #F5C9BF",
"3@	c #DC3D1A",
"4@	c #DD4221",
"5@	c #E36347",
"6@	c #EA5C21",
"7@	c #F36E1F",
"8@	c #F7A676",
"9@	c #FEECE1",
"0@	c #F37830",
"a@	c #F79872",
"b@	c #F36731",
"c@	c #FEECE6",
"d@	c #F78D65",
"e@	c #E84E20",
"f@	c #E57056",
"g@	c #FCEDEA",
"h@	c #FDE4D6",
"i@	c #F58B4D",
"j@	c #F36D20",
"k@	c #F37328",
"l@	c #F47328",
"m@	c #F79A65",
"n@	c #FBC4B0",
"o@	c #F25E26",
"p@	c #F36028",
"q@	c #F68B62",
"r@	c #FDDDD0",
"s@	c #F25C22",
"t@	c #DF5133",
"u@	c #DF5233",
"v@	c #E4694E",
"w@	c #F5803B",
"x@	c #FDE3D4",
"y@	c #F37125",
"z@	c #F3742A",
"A@	c #FBC5A5",
"B@	c #FEF5F0",
"C@	c #FEF6F0",
"D@	c #FBC5A6",
"E@	c #F47429",
"F@	c #F36C1D",
"G@	c #FBCBAF",
"H@	c #FFFCFB",
"I@	c #F57A4A",
"J@	c #F9B499",
"K@	c #FEF1ED",
"L@	c #FEF5F2",
"M@	c #FBC7B2",
"N@	c #F3662F",
"O@	c #F26028",
"P@	c #FFFBF9",
"Q@	c #F36A35",
"R@	c #EE5620",
"S@	c #FDF2EF",
"T@	c #E25F42",
"U@	c #E7785F",
"V@	c #FBE3DF",
"W@	c #F6955D",
"X@	c #FABE9C",
"Y@	c #FAB68F",
"Z@	c #F9B289",
"`@	c #FEE9DD",
" #	c #FEF3EF",
".#	c #F89B78",
"+#	c #FAB79D",
"@#	c #FBBDA5",
"##	c #F57949",
"$#	c #EF5720",
"%#	c #FBE6E1",
"&#	c #E88069",
"*#	c #FADCD6",
"=#	c #F8A16F",
"-#	c #F9A879",
";#	c #FCD8C4",
">#	c #FEE3D5",
",#	c #FFF3ED",
"'#	c #FDE9E1",
")#	c #F2581C",
"!#	c #FAC5B0",
"~#	c #FDE8DF",
"{#	c #F7A07E",
"]#	c #F68256",
"^#	c #DC3C19",
"/#	c #F9DED9",
"(#	c #E56D54",
"_#	c #DC3F1C",
":#	c #FADDD7",
"<#	c #F8A16E",
"[#	c #F8A97A",
"}#	c #FBCAAD",
"|#	c #FCCEB5",
"1#	c #F4742A",
"2#	c #FEF7F2",
"3#	c #FDE6DD",
"4#	c #F9B297",
"5#	c #FCD3C4",
"6#	c #F7A07F",
"7#	c #F68255",
"8#	c #E56D53",
"9#	c #FBE4DF",
"0#	c #F6945B",
"a#	c #FAC09E",
"b#	c #F58747",
"c#	c #FFF5F0",
"d#	c #FEF2EC",
"e#	c #F48240",
"f#	c #F4803B",
"g#	c #FFFFFE",
"h#	c #FCDBCD",
"i#	c #FEEFE9",
"j#	c #FFF7F3",
"k#	c #F67E51",
"l#	c #FABEA7",
"m#	c #FBE6E2",
"n#	c #E4674C",
"o#	c #E4674D",
"p#	c #F57E38",
"q#	c #F37225",
"r#	c #F8A370",
"s#	c #F8A270",
"t#	c #F47D38",
"u#	c #F79F6C",
"v#	c #FABAA1",
"w#	c #F36732",
"x#	c #F6936C",
"y#	c #F79873",
"z#	c #F46F3C",
"A#	c #FEEEE8",
"B#	c #FFF9F8",
"C#	c #F36934",
"D#	c #EE5520",
"E#	c #FDF3F1",
"F#	c #E25E41",
"G#	c #FEFBFA",
"H#	c #EE6521",
"I#	c #FDE1D0",
"J#	c #F68E50",
"K#	c #FCDAC5",
"L#	c #F58053",
"M#	c #F78E66",
"N#	c #FDD9CB",
"O#	c #EB5320",
"P#	c #DD4220",
"Q#	c #FDEFEC",
"R#	c #E36449",
"S#	c #FEEDE3",
"T#	c #F47931",
"U#	c #F8AE83",
"V#	c #F6895F",
"W#	c #E84E1F",
"X#	c #E57158",
"Y#	c #FCEDE9",
"Z#	c #F6CAC0",
"`#	c #E9846E",
" $	c #E24D1F",
".$	c #F4762E",
"+$	c #FEEFE7",
"@$	c #F3782F",
"#$	c #F7A778",
"$$	c #F89975",
"%$	c #F36A36",
"&$	c #ED9D8B",
"*$	c #F5C6BC",
"=$	c #DB3D1A",
"-$	c #EC9582",
";$	c #F2B4A7",
">$	c #F69258",
",$	c #FEEFE6",
"'$	c #F8A372",
")$	c #F47A33",
"!$	c #F36D1E",
"~$	c #F58B4C",
"{$	c #FBD0B8",
"]$	c #F89E7B",
"^$	c #FFF3EF",
"/$	c #F57C4D",
"($	c #F6CAC1",
"_$	c #EA8973",
":$	c #DC3C1A",
"<$	c #E3664B",
"[$	c #FCECE8",
"}$	c #ED6121",
"|$	c #F9AD80",
"1$	c #FCD7C3",
"2$	c #FDE7DA",
"3$	c #F4762F",
"4$	c #FABCA4",
"5$	c #F68E66",
"6$	c #EA5020",
"7$	c #DB3E1C",
"8$	c #DE4726",
"9$	c #FCEEEC",
"0$	c #E05435",
"a$	c #DE4828",
"b$	c #E67A62",
"c$	c #F8A170",
"d$	c #FCD6C0",
"e$	c #FDE2D7",
"f$	c #E2461E",
"g$	c #F9DDD6",
"h$	c #F0A899",
"i$	c #F6CCC2",
"j$	c #F06822",
"k$	c #F58D4F",
"l$	c #FCDBC7",
"m$	c #FEF2EA",
"n$	c #F9B38A",
"o$	c #F37124",
"p$	c #F8A586",
"q$	c #FCCFBE",
"r$	c #F47443",
"s$	c #EF5621",
"t$	c #F9DBD5",
"u$	c #EE9E8D",
"v$	c #E05233",
"w$	c #FEF7F5",
"x$	c #DC3D1C",
"y$	c #FBCBAE",
"z$	c #FEEEE6",
"A$	c #FFF9F5",
"B$	c #FDE0D0",
"C$	c #F4752B",
"D$	c #F46F3B",
"E$	c #DF4E2F",
"F$	c #F4BEB3",
"G$	c #F5C5B9",
"H$	c #F47C36",
"I$	c #F4772E",
"J$	c #DC3B18",
"K$	c #EFA898",
"L$	c #E26146",
"M$	c #DF451E",
"N$	c #F05921",
"O$	c #E0583B",
"P$	c #DC3B19",
"Q$	c #EFA596",
"R$	c #F9DFD9",
"S$	c #DD4422",
"T$	c #DD4726",
"U$	c #FAE6E1",
"V$	c #EE9C8B",
"W$	c #DF4D2D",
"X$	c #F3B9AC",
"Y$	c #E6551F",
"Z$	c #E54A1F",
"`$	c #F4C2B6",
" %	c #F9DDD7",
".%	c #EA8974",
"+%	c #E74D1F",
"@%	c #EB9481",
"#%	c #ED9B88",
"$%	c #FFFEFF",
"%%	c #E77B64",
"&%	c #E75620",
"*%	c #E98772",
"=%	c #F0AA9B",
"-%	c #E98873",
";%	c #FEFAF8",
">%	c #EFA392",
",%	c #F4BCB2",
"'%	c #EA8A75",
")%	c #ED6221",
"!%	c #F1B2A5",
"~%	c #F1B1A3",
"{%	c #F3B6A9",
"]%	c #E24D1E",
"^%	c #F06922",
"/%	c #DD4827",
"(%	c #F4C3B8",
"_%	c #EFA393",
":%	c #EB907C",
"<%	c #FAE2DD",
"[%	c #EC5F21",
"}%	c #F47122",
"|%	c #EA5120",
"1%	c #E87F69",
"2%	c #FBE7E3",
"3%	c #E56F56",
"4%	c #FAE3DD",
"5%	c #DB3D1C",
"6%	c #E95920",
"7%	c #EC6121",
"8%	c #EF6621",
"9%	c #E84F20",
"0%	c #E46A50",
"a%	c #EFA696",
"b%	c #FFFBFB",
"c%	c #E77A62",
"d%	c #E8816A",
"e%	c #F9DCD6",
"f%	c #FEF9F9",
"g%	c #EE9E8C",
"h%	c #E15D41",
"i%	c #ED9B89",
"j%	c #E57057",
"k%	c #DB3E1B",
"l%	c #E67359",
"m%	c #F6CBC2",
"n%	c #F0AA9A",
"o%	c #E0593C",
"p%	c #E05335",
"q%	c #EFA695",
"r%	c #FDF2F1",
"s%	c #FADFDA",
"t%	c #FBE7E2",
"u%	c #FEF3F1",
"v%	c #F9DED7",
"w%	c #EE9F8F",
"x%	c #DF4F30",
"y%	c #E0573A",
"z%	c #FEFCFC",
"A%	c #EA8B76",
"B%	c #E05536",
"C%	c #DD4624",
"D%	c #E36044",
"E%	c #E46A4F",
"F%	c #E56F55",
"G%	c #E4694F",
"H%	c #E35F42",
"                                                                                                                                ",
"                                                                                                                                ",
"                                                                                                                                ",
"                                                        . . . . . . . .                                                         ",
"                                              . . . . . . . . . . . . . . . . . .                                               ",
"                                        . . . . + @ # $ % & * = - ; > , ' ) @ + . . .                                           ",
"                                      . . + ! ~ & { ] ^ / / / / / / / / ( _ : < [ ! + . .                                       ",
"                                  . . . + } | 1 2 / / / 3 1 4 5 6 7 8 3 / / / 9 0 a b + . . .                                   ",
"                              . . . c d e f / / g h i j k l m + . n o p q r s t / / u v w x . . .                               ",
"                            . . y z A / / B C D n x ! E . F G H I J F . . ! K L M N f / O P Q ! . .                             ",
"                          . . + R ( / / S % m . . T U V W X Y Z `  ...+.@.#.$.. . %.&.*./ / =.-.+ . .                           ",
"                        . . + ;.>./ ,.'.! + . ).!.~.{.{.].].].^./.(.(.(././. ._.:.. + + <.[./ }.|.. . .                         ",
"                      . . 1.2./ 9 3.4.+ 4.).5.6.].].].].].].].^./.(.(.(.(.(.(.(.7.8.9.4.+ L 0.2 / a.b.. .                       ",
"                    . . 1.c./ d.e.. . f.g.].].].].].].].].].].^./.(.(.(.(.(.(.(.(.(.(.h.i.. . j.2 / k.m . .                     ",
"                  . . + 2./ l.m.y E n.o.{.].].].].].].].].].].^./.(.(.(.(.(.(.(.(.(.(.(. .:.. ! p.q./ r.m . .                   ",
"                . . + ;./ d.s.t.. u.6.].].].].].].].].].].].].^./.(.(.(.(.(.(.(.(.(.(.(.(./.v.. + w.>./ x.y.. .                 ",
"                . y R >.9 M ! . z.{.].].].].].].].].].].].].].^./.(.(.(.(.(.(.(.(.(.(.(.(.(.(.A.. y B./ 9 C.. .                 ",
"              . . z ( / D.. E u.{.].].].].].].].].].].].].].].^./.(.(.(.(.(.(.(.(.(.(.(.(.(.(.(.E.. 4.2./ F.l . .               ",
"              . @ G./ H.I.. J.6.].].].].].].].].].].].].].].].^./.(.(.(.(.(.(.(.(.(.(.(.(.(.(.(.(.K.E L.M./ N.! .               ",
"            . . d / / O.+ P.Q.].].].].].].].].].].].].].].].].^./.(.(.(.(.(.(.(.(.(.(.(.(.(.(.(.(. .R.. * / 3 S.. .             ",
"          . . + T./ U.! J V.{.].].].W.X.Y.Z.`. +.+++@+].].].].^./.(.(.(.#+$+%+&+*+=+-+;+$+%+(.(.(.(._.. c >+/ | x .             ",
"          . + ,+}.B % + '+].].].)+!+~+{+]+/ / / ^+/+(+_+].].].^./.(.(.(.:+<+[+3 / / 2 }+|+1+2+3+(.(.(.4++ 5+O d.6+. .           ",
"          . ! | / C m F 7+].].W.8+9+0+/ / / / / / / / a+b+].].^./.(.c+d+e+/ / / / / / / / O f+g+3+(.(.8.F ' ,./ h+. .           ",
"        . . i+j+/ k+. n.6.].++l+m+/ / / / / / / / / / n+o+].].^.p+q+f+/ / / / / / / / / / / / r+s+3+(.(.4+! p./ t+u+. .         ",
"        . + v+2 w+m . x+].y+z+/ / / / 0+A+B+C+D+E+F+G+H+y+].].^.I+J+/ / / / K+L+M+N+O+P+2 / / / / Q+R+(.S+T+l ( }.U++ .         ",
"        . @ |./ V+x W+Q.)+X+Y+/ / / Z+`+ @.@].b+o++@@@].].].].^.#@/ / / / $@%@&@*@(.=@-@;@>@/ / / m+,@(.'@J . C / )@y..         ",
"        . # N / !@! ~@6.{@]@/ / / ^@/@++].].].].].y+].].].].].(@/ / / K+_@:@3+(.(.(.(.(.<@[@}@/ / / |@&@7.#.. 1@/ 2@3@.         ",
"        . 4@^ / 5@E 6@7@8@/ / / 9@0@].].].].].].].].].].].].{@]+/ / / a@%+(.(.(.(.(.(.(.(.(.b@c@/ / / d@%+e@. f@/ g@L..         ",
"      . . U+/ 3 k . V.++h@/ / m+i@W.].].].j@k@l@++].].].].++m@/ / / n@:@(.(.(.R+o@p@:@(.(.(.%+q@/ / / r@s@_.. t@2 >.u@. .       ",
"      . . v@/ 1 l J X w@/ / / x@y@].].].z@A@B@C@D@E@].].].F@G@/ / H@I@3+(.(.2+J@K@L@M@N@(.(.(.O@c@/ / P@Q@R@. L S@/ T@. .       ",
"      . . U@/ V@m G o.W@/ / / X@].].].)+Y@/ / / / Z@@+].].)+`@/ /  #-@(.(.%+.#/ / / / +#$+(.(.<@@#/ / 2 ##$#4.t.%#/ & . .       ",
"      . . &#/ *#+ H Q.=#/ / / -#].].].++;#/ / / / >#++].].Y.,#/ / '#2+(.(.)#!#/ / / / ~#R+(.(.:@{#/ / / ]#$#F ^#/#/ (#_#.       ",
"      . . = / :#+ H Q.<#/ / / [#].].].W.}#/ / / / |#F@].].1#2#/ / 3#&@(.(.:@4#/ / / / 5#)#(.(.:@6#/ / / 7#$#F ^#t+/ 8#_#.       ",
"      . . * / 9#%.G Q.0#/ / / a#].].].].b#c#/ / d#e#)+].].f#g#/ / h#s@(.(.(.:+i#/ / j#k#3+(.(.<@l#/ / 2 ##$#4.! m#/ n#. .       ",
"      . . o#/ 1 l J X p#g#/ / h@q#].].].)+@@r#s#t#].].].)+u#/ / / v#3+(.(.(.3+w#x#y#z#(.(.(.(.p@A#/ / B#C#D#. 1.E#/ F#. .       ",
"      . . % / G#p . H#++I#/ / m+J#++].].].].++++].].].].7@K#/ / / L#3+(.(.(.(.(.:@:@#+(.(.(.:@M#/ / / N#(.O#. , / G#p . .       ",
"        . P#Q#/ R#E 6@7@s#2 / / S#T#].].].].].].].].].].U#/ / / [+7.(.(.(.(.(.(.(.(.(.(.(.(.C#A#/ / / V#%+W#. X#/ Y#L..         ",
"        . ) Z#/ `#!  $6..$+$/ / / B+@$W.].].].].].].F@#$P@/ / / $$#+(.(.(.(.(.(.(.(.(.(.:@%$[+/ / / r@;+7.4+. &$/ *$=$.         ",
"        . @ -$/ ;$x R.o.W.>$P@/ / / ,$'$)$W.!$!$Y.~$G@/ / / / {$/.(.(.(.(.(.(.(.(.(.(.2+]$^$/ / / F+/$(. .F _#($/ _$:$.         ",
"        . + <$9 [$4@E }$].^.|$/ / / / / F+/+C+1$+$/ / / / / 2$3$/.(.(.(.(.(.(.(.(.(.*@4$/ / / / m+5$%+(.6$7$8$9$f 0$+ .         ",
"        . . a$9$/ b$. '+6.].y+c$H@/ / / / / / / / / / / / d$T#^./.(.(.(.(.(.(.(.(.(.c+e$/ / / r+V##+(.(.f$=$= / g$b.. .         ",
"          . ! h$/ i$%.F j$].].++k$l$g#/ / / / / / / / m$n$o$].^./.(.(.(.(.(.(.(.(.(.(.p$O m+q$r$%+(.(.s$4.4@t$/ u$. .           ",
"          . + v$w$f &.x$~@].].].].^.~$y$z$A$^+G+c#B$H+C$].].].^./.(.(.(.(.(.(.(.(.(.(.#+[@D$#+(.(.(.(.f$+ v@2 q.E$. .           ",
"            . + F$/ G$y F g.{.].].].)+W.k@)$Z.H$I$b+j@].].].].^./.(.(.(.(.(.(.(.(.(.(.(.3+3+(.(.(.(._.. J$C / K$c .             ",
"            . . L$9 / R + M$o.].].].].].].].].].].].].].].].].^./.(.(.(.(.(.(.(.(.(.(.(.(.(.(.(.(.N$W+. - / }.O$. .             ",
"              . P$Q$/ R$S$. n.].].].].].].].].].].].].].].].].^./.(.(.(.(.(.(.(.(.(.(.(.(.(.(.(.(.f$E T$U$/ V$3@.               ",
"              . . W$t / X$. E Y$].].].].].].].].].].].].].].].^./.(.(.(.(.(.(.(.(.(.(.(.(.(.(.(.Z$. m `$/  %l . .               ",
"                . y 8#d.2 .%! . V ].].].].].].].].].].].].].].^./.(.(.(.(.(.(.(.(.(.(.(.(.(.(.+%E ^#@%/ }.v@. .                 ",
"                . . + #%/ $%%%+ . &%{.].].].].].].].].].].].].^./.(.(.(.(.(.(.(.(.(.(.(.(.(.Z$E . *%/ g#*%t.. .                 ",
"                  . . . =%/ f !@y . ~@o.{.].].].].].].].].].].^./.(.(.(.(.(.(.(.(.(.(.(. .f$. ^#-%;%/ >%m . .                   ",
"                    . . 4@,%/ H@'%m E P.)%].].].].].].].].].].^./.(.(.(.(.(.(.(.(.(.(._.W+E %.-$/ / !%+ . .                     ",
"                      . . I.~%/ / {%L.. . ]%^%].].].].].].].].^./.(.(.(.(.(.(.(.(.8.4+. . /%(%/ g#_%+ . .                       ",
"                        . . m :%9 / <%* c + J  $[%Q.}%{.].].].^./.(.(.(.(.7.'@|%f$4.+ ^#1%2%/ d.-%m . .                         ",
"                          . . :$3%4%/ / >+5+' ! 5%J ).6%7%8%^%j$..$#+._.9%4+J 7$=$4@0%($/ / [.v@t.. .                           ",
"                            . . . o a%b%/ O ,.c%l . . . . 4.F F F F . . . . E 8$d%e%2 / f%g%l . . .                             ",
"                              . . . ! h%~%G#/ / ( _ i%j%u@1.k%^#^#t.L.0$l%u$m%^ / / f n%o%3@. . .                               ",
"                                  . . . K p%q%F.d./ / / $%r%%#R$s%t%u%/ / / / }.v%w%x%c . . .                                   ",
"                                      . . . . P#y%:%] Q#z%/ / / / / / H@( 2@A%B%$ . . . .                                       ",
"                                          . . . + y.! C%p%D%E%F%F%G%H%u@L.=$:$+ . . .                                           ",
"                                              . . . . . . . . + + . . . . . . . .                                               ",
"                                                        . . . . . . . .                                                         ",
"                                                                                                                                ",
"                                                                                                                                ",
"                                                                                                                                "};
