/* XPM */
static char * titcoin16_xpm[] = {
"16 16 139 2",
"  	c None",
". 	c #DF4F30",
"+ 	c #E9846F",
"@ 	c #F0A99A",
"# 	c #F0AA9B",
"$ 	c #DF4D2E",
"% 	c #DE4A2A",
"& 	c #F0A899",
"* 	c #EB8B76",
"= 	c #EA6F46",
"- 	c #EB6733",
"; 	c #EB5F32",
"> 	c #E96B47",
", 	c #EEA292",
"' 	c #DD4322",
") 	c #F0A999",
"! 	c #E66139",
"~ 	c #EF651D",
"{ 	c #F47022",
"] 	c #F37022",
"^ 	c #F35D21",
"/ 	c #F35C21",
"( 	c #EF541D",
"_ 	c #E76442",
": 	c #F0AFA1",
"< 	c #DE4928",
"[ 	c #E66239",
"} 	c #F36E22",
"| 	c #F36F22",
"1 	c #F36F21",
"2 	c #F25D21",
"3 	c #F25B21",
"4 	c #F25A20",
"5 	c #E65F3C",
"6 	c #EE9E8D",
"7 	c #EB8C76",
"8 	c #F06924",
"9 	c #FABF9C",
"0 	c #FDE2D3",
"a 	c #FCCCB0",
"b 	c #F37124",
"c 	c #F47B49",
"d 	c #FCD0BF",
"e 	c #FDDED2",
"f 	c #FAB297",
"g 	c #EF5720",
"h 	c #EFA291",
"i 	c #E3664A",
"j 	c #EA856F",
"k 	c #EA6D42",
"l 	c #FBC7A6",
"m 	c #FBCDB3",
"n 	c #F68949",
"o 	c #F68E51",
"p 	c #F37931",
"q 	c #FEEBE2",
"r 	c #F89C78",
"s 	c #F57847",
"t 	c #FCCDBB",
"u 	c #FBC5B0",
"v 	c #E55A37",
"w 	c #EA8671",
"x 	c #EC7040",
"y 	c #FEECE1",
"z 	c #F37328",
"A 	c #FCD2B9",
"B 	c #F6965E",
"C 	c #F9AA7C",
"D 	c #FAB094",
"E 	c #F47C4E",
"F 	c #FCD2C2",
"G 	c #F3622C",
"H 	c #FEEAE1",
"I 	c #E7542C",
"J 	c #EB8D7B",
"K 	c #F0AB9B",
"L 	c #EC703E",
"M 	c #FFEEE4",
"N 	c #F37024",
"O 	c #F9B289",
"P 	c #F58748",
"Q 	c #FBC9AC",
"R 	c #F89974",
"S 	c #F47240",
"T 	c #F9AC8F",
"U 	c #F26128",
"V 	c #FEEBE4",
"W 	c #E6542B",
"X 	c #EB8E7A",
"Y 	c #E9856F",
"Z 	c #E96C41",
"` 	c #FCC9A9",
" .	c #FBC5A5",
"..	c #F58545",
"+.	c #F7A16F",
"@.	c #FFF1E9",
"#.	c #F46D39",
"$.	c #F25C22",
"%.	c #FBC5B1",
"&.	c #E55B38",
"*.	c #E98671",
"=.	c #F16B24",
"-.	c #F9B389",
";.	c #FDE3D3",
">.	c #FBCEB2",
",.	c #F47E39",
"'.	c #F25C21",
").	c #F3612A",
"!.	c #F89A76",
"~.	c #EF5822",
"{.	c #F0A695",
"].	c #E36449",
"^.	c #EFA392",
"/.	c #E86943",
"(.	c #F36C1E",
"_.	c #F36E1F",
":.	c #F1571B",
"<.	c #E76240",
"[.	c #ED9886",
"}.	c #DD4423",
"|.	c #F0B0A2",
"1.	c #E7653D",
"2.	c #F06720",
"3.	c #F36E21",
"4.	c #F0561F",
"5.	c #F1B1A3",
"6.	c #DD4524",
"7.	c #EE9F8E",
"8.	c #EFA391",
"9.	c #E55D36",
"0.	c #E65522",
"a.	c #E64D21",
"b.	c #F0A796",
"c.	c #ED9986",
"d.	c #E3664B",
"e.	c #E98771",
"f.	c #EB8E7B",
"g.	c #EB8F7B",
"h.	c #E36549",
"                                ",
"          . + @ # + $           ",
"      % & * = - ; > * , '       ",
"    % ) ! ~ { ] ^ / ( _ : <     ",
"    ) [ } | 1 | 2 3 3 4 5 6     ",
"  . 7 8 9 0 a b c d e f g h i   ",
"  j k l m n o p q r s t u v w   ",
"  # x y z A B C D E F G H I J   ",
"  K L M N O P Q R S T U V W X   ",
"  Y Z `  ...+.@.#.4 $.u %.&.*.  ",
"  $ * =.-.;.>.,.'.3 ).!.~.{.].  ",
"    ^./.(._.(.1 2 3 3 :.<.[.    ",
"    }.|.1.2.3.] ^ 4 4.<.5.6.    ",
"      < 7.8.9.0.a.v b.c.6.      ",
"          d.e.f.g.*.h.          ",
"                                "};
