/* XPM */
static char * titcoin32_xpm[] = {
"32 32 357 2",
"  	c None",
". 	c #DB3C1A",
"+ 	c #DB3916",
"@ 	c #DC401E",
"# 	c #DF5031",
"$ 	c #E25D3F",
"% 	c #E25C3F",
"& 	c #DC3F1D",
"* 	c #DC3D1A",
"= 	c #DE4D2D",
"- 	c #E87F68",
"; 	c #F4C1B6",
"> 	c #FBE8E4",
", 	c #FCEDEA",
"' 	c #FCE9E6",
") 	c #FBE7E2",
"! 	c #F4BFB4",
"~ 	c #E87C65",
"{ 	c #DE4B2C",
"] 	c #DC3D1B",
"^ 	c #EB907D",
"/ 	c #FEF4F2",
"( 	c #F8D6CF",
"_ 	c #E8806A",
": 	c #E04F31",
"< 	c #DE4423",
"[ 	c #DD4320",
"} 	c #DD4321",
"| 	c #DD4423",
"1 	c #E05032",
"2 	c #E8836D",
"3 	c #F9D9D2",
"4 	c #FDF2F0",
"5 	c #EA8C78",
"6 	c #E15638",
"7 	c #F9DAD2",
"8 	c #F7D0C7",
"9 	c #E3664C",
"0 	c #DF431E",
"a 	c #E6521D",
"b 	c #ED6220",
"c 	c #F06822",
"d 	c #F16922",
"e 	c #F05A21",
"f 	c #EF5721",
"g 	c #ED5320",
"h 	c #E74A1C",
"i 	c #DF421E",
"j 	c #E36A4F",
"k 	c #F7D3CB",
"l 	c #F8D6CE",
"m 	c #E05436",
"n 	c #DC3E1C",
"o 	c #E26144",
"p 	c #FDF0ED",
"q 	c #EE9F8D",
"r 	c #DD3E19",
"s 	c #E7561F",
"t 	c #F26E22",
"u 	c #F47022",
"v 	c #F36F22",
"w 	c #F36E22",
"x 	c #F25D21",
"y 	c #F25B21",
"z 	c #F25C21",
"A 	c #E74D1F",
"B 	c #DD3D1A",
"C 	c #EEA495",
"D 	c #FDEDE9",
"E 	c #E25C40",
"F 	c #E87F69",
"G 	c #DF441C",
"H 	c #F06821",
"I 	c #F05721",
"J 	c #DE401B",
"K 	c #E9846E",
"L 	c #FDF0EC",
"M 	c #F9D9D3",
"N 	c #EE9F8E",
"O 	c #F06A22",
"P 	c #F05821",
"Q 	c #DF421D",
"R 	c #EFA393",
"S 	c #F7D2CA",
"T 	c #F7D0C8",
"U 	c #F06921",
"V 	c #F36E21",
"W 	c #F36D20",
"X 	c #F36E20",
"Y 	c #F36F21",
"Z 	c #F25A20",
"` 	c #F2591F",
" .	c #F2591E",
"..	c #DD3E1A",
"+.	c #F8D7CF",
"@.	c #EB8F7A",
"#.	c #E3674C",
"$.	c #E8581F",
"%.	c #F58A4C",
"&.	c #FAB992",
"*.	c #FBC5A6",
"=.	c #F9AF84",
"-.	c #F47C35",
";.	c #F25A1F",
">.	c #F46E3A",
",.	c #F8A686",
"'.	c #FBBEA6",
").	c #F9AD91",
"!.	c #F57848",
"~.	c #E74C1F",
"{.	c #E56F56",
"].	c #FDEFEC",
"^.	c #DE4928",
"/.	c #DF451E",
"(.	c #F47D37",
"_.	c #FCD9C5",
":.	c #FFFFFF",
"<.	c #FEF1E9",
"[.	c #F37125",
"}.	c #F36D22",
"|.	c #F35E23",
"1.	c #FBBFA7",
"2.	c #FFFCFB",
"3.	c #FCD1C0",
"4.	c #F36833",
"5.	c #F25A21",
"6.	c #DE411C",
"7.	c #F8D7D0",
"8.	c #E6735B",
"9.	c #DB3C19",
"0.	c #F4C1B7",
"a.	c #E7541D",
"b.	c #F47C33",
"c.	c #FEEFE6",
"d.	c #FDE5D8",
"e.	c #F79E69",
"f.	c #FABB96",
"g.	c #F8A87A",
"h.	c #F37127",
"i.	c #FCCFBE",
"j.	c #FEEEE8",
"k.	c #F9B094",
"l.	c #F78F68",
"m.	c #F9A687",
"n.	c #FDE5DB",
"o.	c #FDE6DD",
"p.	c #F3652D",
"q.	c #E5481B",
"r.	c #E9856F",
"s.	c #F4BCB0",
"t.	c #DB3917",
"u.	c #E04F30",
"v.	c #ED5F1B",
"w.	c #FBC09E",
"x.	c #FBCAAE",
"y.	c #F36D1F",
"z.	c #F79D67",
"A.	c #FFFEFE",
"B.	c #FDE0D6",
"C.	c #F3642D",
"D.	c #F25E26",
"E.	c #FBCAB7",
"F.	c #FAB197",
"G.	c #EB4E1A",
"H.	c #E0583B",
"I.	c #FBE9E5",
"J.	c #DD4120",
"K.	c #DF5032",
"L.	c #F16D29",
"M.	c #FEF8F4",
"N.	c #FFFAF8",
"O.	c #F47C36",
"P.	c #F58848",
"Q.	c #FABC98",
"R.	c #F58A4B",
"S.	c #F36C1D",
"T.	c #FCDDCA",
"U.	c #F68357",
"V.	c #F47443",
"W.	c #F9B297",
"X.	c #F57E50",
"Y.	c #F36C38",
"Z.	c #FFFBFA",
"`.	c #FFF7F4",
" +	c #EF5D29",
".+	c #DE4B2B",
"++	c #FDF3F1",
"@+	c #E05132",
"#+	c #E25D40",
"$+	c #FCE9E5",
"%+	c #F38144",
"&+	c #FDE0CF",
"*+	c #F37227",
"=+	c #FEEEE5",
"-+	c #FEEADE",
";+	c #F37126",
">+	c #F47125",
",+	c #FFF6F1",
"'+	c #FFF9F6",
")+	c #F3622B",
"!+	c #F25D24",
"~+	c #FEE6DD",
"{+	c #FEEDE7",
"]+	c #F26027",
"^+	c #F2571C",
"/+	c #FDDCD0",
"(+	c #F27041",
"_+	c #DE4726",
":+	c #FEF2EF",
"<+	c #E25B3E",
"[+	c #F37023",
"}+	c #FCD9C2",
"|+	c #F37024",
"1+	c #F4772D",
"2+	c #FFFCFA",
"3+	c #FFF3EE",
"4+	c #F25E24",
"5+	c #F25C22",
"6+	c #FCCEBD",
"7+	c #FCDBCD",
"8+	c #F2581C",
"9+	c #FDDDD1",
"0+	c #E15B3E",
"a+	c #E05031",
"b+	c #F16D28",
"c+	c #FFF7F3",
"d+	c #F47D36",
"e+	c #F37429",
"f+	c #F69054",
"g+	c #F4742B",
"h+	c #F79A64",
"i+	c #FCD4C4",
"j+	c #F2581D",
"k+	c #F25F26",
"l+	c #F58053",
"m+	c #F3632C",
"n+	c #F46D39",
"o+	c #FFF6F2",
"p+	c #EF5C28",
"q+	c #DD3F1D",
"r+	c #FBE7E3",
"s+	c #ED5E1B",
"t+	c #FABE9A",
"u+	c #FBCAAD",
"v+	c #F37328",
"w+	c #FEE8DC",
"x+	c #F6865B",
"y+	c #F26129",
"z+	c #FBCBB9",
"A+	c #F9AF92",
"B+	c #EA4E1A",
"C+	c #E1593C",
"D+	c #FCE9E4",
"E+	c #DD411F",
"F+	c #F4C0B5",
"G+	c #E8826C",
"H+	c #E7531C",
"I+	c #F47A31",
"J+	c #FEEADF",
"K+	c #F9AE83",
"L+	c #F79C66",
"M+	c #FABD99",
"N+	c #FEF5EF",
"O+	c #FBCDB4",
"P+	c #F25E23",
"Q+	c #F46F3C",
"R+	c #FEE9E1",
"S+	c #FEE6DC",
"T+	c #E5471B",
"U+	c #EA8771",
"V+	c #F3BAAF",
"W+	c #DB3A17",
"X+	c #E87D66",
"Y+	c #F9D8D1",
"Z+	c #F47C37",
"`+	c #FCD5BE",
" @	c #FFFDFB",
".@	c #FABD98",
"+@	c #F37025",
"@@	c #F68457",
"#@	c #F8D9D3",
"$@	c #E67158",
"%@	c #FDF3F0",
"&@	c #E3694F",
"*@	c #E85620",
"=@	c #F36D1E",
"-@	c #F68A4B",
";@	c #FAB68F",
">@	c #FBC3A1",
",@	c #F9AD82",
"'@	c #F47D38",
")@	c #F3662F",
"!@	c #E64C1F",
"~@	c #E57259",
"{@	c #FCEEEB",
"]@	c #DD4827",
"^@	c #EB8D79",
"/@	c #F7D4CC",
"(@	c #DD3F19",
"_@	c #F16822",
":@	c #EE5621",
"<@	c #DD3E1B",
"[@	c #EA8B76",
"}@	c #DD401E",
"|@	c #F7D6CF",
"1@	c #EFA596",
"2@	c #DE431B",
"3@	c #F06922",
"4@	c #F0AA9B",
"5@	c #F6CEC6",
"6@	c #E05536",
"7@	c #FCEEEA",
"8@	c #DE441D",
"9@	c #EA8975",
"0@	c #FCECE9",
"a@	c #E05435",
"b@	c #DC3E1B",
"c@	c #EFA394",
"d@	c #DD3F1A",
"e@	c #E75720",
"f@	c #F37022",
"g@	c #DD3F1B",
"h@	c #F0AB9C",
"i@	c #E05537",
"j@	c #F8D6D0",
"k@	c #E56F55",
"l@	c #DE431C",
"m@	c #E6511C",
"n@	c #EC6020",
"o@	c #EF6722",
"p@	c #F05921",
"q@	c #EF5621",
"r@	c #EB521F",
"s@	c #E5491B",
"t@	c #DE411D",
"u@	c #E6725A",
"v@	c #F9DAD3",
"w@	c #F7CFC6",
"x@	c #E05335",
"y@	c #EB907C",
"z@	c #FDF0EE",
"A@	c #E98570",
"B@	c #DE4A2B",
"C@	c #EA8872",
"D@	c #F9DAD4",
"E@	c #FCEFEC",
"F@	c #EA8C77",
"G@	c #DE4929",
"H@	c #E6755C",
"I@	c #F4BEB2",
"J@	c #FCEBE7",
"K@	c #FDF4F1",
"L@	c #FCEAE5",
"M@	c #F3BBAF",
"N@	c #E67259",
"O@	c #E15C3F",
"P@	c #DB3A16",
"                                                                ",
"                                                                ",
"                      . + @ # $ % # & + *                       ",
"                  * = - ; > , ' ' , ) ! ~ { ]                   ",
"              & @ ^ / ( _ : < [ } | 1 2 3 4 5 @ &               ",
"            * 6 7 8 9 0 a b c d e f g h i j k l m n             ",
"          * o p q r s t u v v w x y y z y A B C D E ]           ",
"        & 6 p F G H v v v v v w x y y y y y I J K L m &         ",
"        @ M N G O v v v v v v w x y y y y y y P Q R S ]         ",
"      * ^ T r U v V W W X Y v w x y Z `  . .Z y f ..+.@.n       ",
"      = / #.$.v V %.&.*.=.-.Y w x ;.>.,.'.).!.Z y ~.{.].^.      ",
"    . - ( /.V (._.:.:.:.:.<.[.}.|.1.2.:.:.:.:.3.4.5.6.7.8.9.    ",
"    + 0.F a.b.c.:.d.=.e.f.g.X h.i.:.j.k.l.m.n.:.o.p.q.r.s.t.    ",
"    @ > u.v.w.:.x.[.v V v v y.z.A.B.C.y Z y D.E.:.F.G.H.I.J.    ",
"    K., | L.M.N.O.V P.Q.R.v S.T.:.U.;.V.W.X.y Y.Z.`. +.+++@+    ",
"    #+$+[ %+:.&+y.*+=+:.-+;+>+,+'+)+!+~+:.{+]+^+/+:.(+_+:+<+    ",
"    #+' } %+:.&+y.[+_.:.}+|+1+2+3+4+5+6+:.7+4+8+9+:.(+_+:+0+    ",
"    a+, | b+c+N.d+v e+f+g+V h+:.i+j+y k+l+m+y n+2.o+p+.+++#     ",
"    q+r+a+s+t+:.u+v+X V X O.w+A.x+ .y y y y y+z+:.A+B+C+D+E+    ",
"    + F+G+H+I+c.:.J+K+L+M+N+:.O+P+y y y Z Q+R+:.S+m+T+U+V+W+    ",
"    * X+Y+/.V Z+`+:.:.:.:. @.@+@x y y y ` @@2.E.4.5.6.#@$@9.    ",
"      { %@&@*@v =@-@;@>@,@'@y.w x y y y y 5.)@ .y !@~@{@]@      ",
"      ] ^@/@(@_@v v Y Y Y v v w x y y y y y y y :@<@M [@n       ",
"        }@|@1@2@3@v v v v v v w x y y y y y y f 6.4@5@n         ",
"        & 6@7@r.8@c v v v v v w x y y y y y :@6.9@0@a@&         ",
"          b@#+p c@d@e@w f@v v w x y y y y !@g@h@0@H.b@          ",
"            * i@k j@k@l@m@n@o@d p@q@r@s@t@u@v@w@x@b@            ",
"              & b@y@z@7.A@H.B@_+_+{ C+C@D@E@F@n &               ",
"                  n G@H@I@J@K@:+:+++L@M@N@]@n                   ",
"                      9.t.J.@+% O@K.E+P@9.                      ",
"                                                                ",
"                                                                "};
